<?xml version="1.0" encoding="UTF-8"?>
<svg xmlns="http://www.w3.org/2000/svg" xmlns:xlink="http://www.w3.org/1999/xlink" width="2609.37pt" height="467.94pt" viewBox="0 0 2609.37 467.94" version="1.1">
<defs>
<clipPath id="clip1">
  <path d="M 2285 103 L 2609.371094 103 L 2609.371094 369 L 2285 369 Z M 2285 103 "/>
</clipPath>
<clipPath id="clip2">
  <path d="M 2535 0 L 2609.371094 0 L 2609.371094 74 L 2535 74 Z M 2535 0 "/>
</clipPath>
<clipPath id="clip3">
  <path d="M 258 315 L 347 315 L 347 467.941406 L 258 467.941406 Z M 258 315 "/>
</clipPath>
<clipPath id="clip4">
  <path d="M 84 216 L 260 216 L 260 467.941406 L 84 467.941406 Z M 84 216 "/>
</clipPath>
</defs>
<g id="surface1">
<path style=" stroke:none;fill-rule:nonzero;fill:rgb(0%,56.098938%,81.199646%);fill-opacity:1;" d="M 1563.449219 295.523438 C 1589.019531 327.886719 1612.171875 343.984375 1640.769531 343.984375 C 1683.140625 343.984375 1708.101563 306.363281 1708.101563 236.382813 C 1708.101563 166.414063 1682.980469 128.78125 1640.769531 128.78125 C 1612.171875 128.78125 1589.179688 143.824219 1563.449219 176.796875 Z M 1533.191406 108.164063 L 1555.871094 108.164063 L 1563.75 141.421875 L 1566.171875 141.421875 C 1585.441406 118.1875 1613.820313 104.265625 1644.101563 103.199219 C 1700.238281 103.199219 1739.578125 151.660156 1739.578125 235.777344 C 1739.578125 319.910156 1700.238281 368.371094 1644.101563 368.371094 C 1614.101563 367.421875 1585.949219 353.714844 1566.769531 330.753906 L 1564.351563 330.753906 L 1564.351563 457.011719 L 1534.101563 457.011719 L 1533.191406 108.164063 "/>
<path style=" stroke:none;fill-rule:nonzero;fill:rgb(0%,56.098938%,81.199646%);fill-opacity:1;" d="M 1798.980469 107.042969 L 1827.601563 107.042969 L 1827.601563 153.171875 L 1830.460938 153.171875 C 1847.210938 118.734375 1868.691406 103.199219 1900.300781 103.199219 L 1901.738281 103.199219 L 1901.738281 133.949219 L 1897.449219 133.949219 C 1863.53125 133.949219 1841.191406 155.015625 1827.171875 204.507813 L 1827.171875 368.558594 L 1798.550781 368.558594 L 1798.980469 107.042969 "/>
<path style=" stroke:none;fill-rule:nonzero;fill:rgb(0%,56.098938%,81.199646%);fill-opacity:1;" d="M 1960.710938 103.199219 L 1990.191406 103.199219 L 1990.191406 368.558594 L 1960.710938 368.558594 L 1960.710938 103.199219 "/>
<path style=" stroke:none;fill-rule:nonzero;fill:rgb(0%,56.098938%,81.199646%);fill-opacity:1;" d="M 2138.570313 345.132813 C 2171.710938 345.132813 2193.699219 325.066406 2193.699219 298.058594 C 2193.699219 267.867188 2168.730469 260.324219 2124.75 244.617188 C 2070.558594 225.457031 2042.429688 210.816406 2042.429688 171.425781 C 2042.429688 132.023438 2075.578125 103.199219 2128.828125 103.199219 C 2164.769531 103.761719 2198.050781 121.398438 2217.75 150.292969 L 2195.289063 165.378906 C 2179.710938 141.597656 2152.558594 127.140625 2123.328125 127.042969 C 2110.941406 125.789063 2098.589844 129.703125 2089.390625 137.777344 C 2080.199219 145.855469 2075.058594 157.347656 2075.261719 169.308594 C 2075.261719 196.777344 2101.339844 203.113281 2145.789063 219.425781 C 2198.890625 238.585938 2226.070313 254.277344 2226.070313 294.878906 C 2226.070313 335.488281 2190.25 368.53125 2135.109375 368.53125 C 2094.769531 369.320313 2056.789063 350.246094 2034.421875 317.96875 L 2057.988281 299.859375 C 2080.921875 330.046875 2107.46875 345.132813 2138.570313 345.132813 "/>
<g clip-path="url(#clip1)" clip-rule="nonzero">
<path style=" stroke:none;fill-rule:nonzero;fill:rgb(0%,56.098938%,81.199646%);fill-opacity:1;" d="M 2286.839844 107.820313 L 2314.609375 107.820313 L 2314.609375 148.132813 L 2316.570313 148.132813 C 2343.441406 117.464844 2371.679688 103.214844 2398.550781 103.214844 C 2426.441406 102.523438 2451.378906 120.894531 2459.511719 148.132813 L 2462.96875 148.132813 C 2490.738281 117.464844 2517.628906 103.214844 2544.949219 103.214844 C 2587.878906 103.214844 2609.371094 131.113281 2609.371094 186.914063 L 2609.371094 368.558594 L 2580.539063 368.558594 L 2580.539063 197.941406 C 2580.539063 151.960938 2572.730469 130.191406 2536.550781 130.191406 C 2513.109375 130.191406 2487.738281 145.523438 2462.820313 178.480469 L 2462.820313 368.558594 L 2432.789063 368.558594 L 2432.789063 197.941406 C 2432.789063 151.960938 2424.96875 130.191406 2388.789063 130.191406 C 2365.371094 130.191406 2340.441406 145.523438 2315.070313 178.480469 L 2315.070313 368.558594 L 2285.039063 368.558594 L 2286.839844 107.820313 "/>
</g>
<path style=" stroke:none;fill-rule:nonzero;fill:rgb(0%,43.499756%,66.299438%);fill-opacity:1;" d="M 741.996094 328.839844 C 782.371094 328.839844 806.128906 296.273438 806.128906 234.511719 C 806.128906 169.828125 782.832031 136.628906 740.441406 136.628906 C 717.917969 137.621094 697.164063 149.050781 684.382813 167.507813 L 684.382813 295.496094 C 697.058594 315.191406 718.507813 327.601563 741.996094 328.839844 Z M 684.382813 0.00390625 L 684.382813 129.53125 C 699.1875 108.742188 723.359375 96.546875 748.988281 96.96875 C 812.648438 96.96875 855.046875 147.140625 855.046875 230.96875 C 855.046875 318.34375 815.140625 368.515625 749.445313 368.515625 C 721.582031 369.363281 695.113281 356.40625 678.789063 333.9375 L 671.1875 364.816406 L 633.914063 364.816406 C 636.394531 338.726563 637.023438 314.183594 637.023438 291.019531 L 637.023438 0.00390625 L 684.382813 0.00390625 "/>
<path style=" stroke:none;fill-rule:nonzero;fill:rgb(0%,43.499756%,66.299438%);fill-opacity:1;" d="M 943.5 14.746094 L 943.5 368.558594 L 899.273438 368.558594 L 899.273438 14.746094 L 943.5 14.746094 "/>
<path style=" stroke:none;fill-rule:nonzero;fill:rgb(0%,43.499756%,66.299438%);fill-opacity:1;" d="M 1062.488281 103.199219 L 1062.488281 278.984375 C 1062.488281 313.347656 1073.179688 329.300781 1099.601563 329.300781 C 1124.441406 326.992188 1147.308594 314.367188 1162.988281 294.316406 L 1162.988281 103.199219 L 1208.859375 103.199219 L 1208.859375 363.953125 L 1166.398438 363.953125 L 1166.398438 329.140625 C 1138.339844 355.054688 1113.851563 368.558594 1085.351563 368.558594 C 1042.449219 368.558594 1017.210938 341.105469 1017.210938 291.867188 L 1017.210938 103.199219 L 1062.488281 103.199219 "/>
<path style=" stroke:none;fill-rule:nonzero;fill:rgb(0%,43.499756%,66.299438%);fill-opacity:1;" d="M 1371.539063 140.773438 C 1338.019531 140.773438 1317.058594 164.671875 1315.121094 208.710938 L 1425.589844 208.710938 C 1424.679688 165.117188 1403.730469 140.628906 1371.539063 140.628906 Z M 1314.679688 244.34375 L 1314.679688 249.296875 C 1314.679688 301.152344 1338.019531 330.019531 1378.421875 330.019531 C 1405.140625 330.132813 1429.390625 314.386719 1440.238281 289.882813 L 1474.21875 310.324219 C 1455.46875 347.25 1417.121094 369.925781 1375.890625 368.484375 C 1306.289063 368.484375 1267.828125 323.398438 1267.828125 238.484375 C 1267.828125 150.996094 1306.738281 103.199219 1372.589844 103.199219 C 1433.359375 103.199219 1472.421875 149.644531 1472.421875 230.8125 C 1472.421875 235.175781 1472.421875 239.679688 1472.421875 244.042969 L 1314.679688 244.34375 "/>
<g clip-path="url(#clip2)" clip-rule="nonzero">
<path style=" stroke:none;fill-rule:nonzero;fill:rgb(0%,56.898499%,81.599426%);fill-opacity:1;" d="M 2565.738281 34.152344 L 2574.210938 34.152344 C 2579.609375 34.152344 2583.160156 32.972656 2583.160156 27.386719 C 2583.160156 21.816406 2578.761719 21.136719 2574.210938 21.136719 L 2565.738281 21.136719 Z M 2558.648438 15.550781 L 2575.558594 15.550781 C 2585.519531 15.550781 2590.429688 19.609375 2590.429688 27.730469 C 2590.71875 30.839844 2589.671875 33.9375 2587.539063 36.226563 C 2585.410156 38.515625 2582.398438 39.796875 2579.28125 39.738281 L 2591.609375 58.84375 L 2584.171875 58.84375 L 2572.160156 39.738281 L 2566.261719 39.738281 L 2566.261719 58.671875 L 2559.148438 58.671875 Z M 2572.511719 67.625 C 2580.640625 67.539063 2588.390625 64.171875 2593.988281 58.28125 C 2599.601563 52.394531 2602.589844 44.476563 2602.269531 36.355469 C 2603.121094 25.15625 2597.621094 14.429688 2588.03125 8.570313 C 2578.460938 2.710938 2566.410156 2.710938 2556.820313 8.570313 C 2547.230469 14.429688 2541.738281 25.15625 2542.589844 36.355469 C 2542.019531 44.648438 2544.929688 52.8125 2550.601563 58.902344 C 2556.261719 64.976563 2564.191406 68.445313 2572.511719 68.476563 Z M 2572.511719 0.00390625 C 2592.871094 0.00390625 2609.371094 16.503906 2609.371094 36.859375 C 2609.371094 57.214844 2592.871094 73.714844 2572.511719 73.714844 C 2552.148438 73.714844 2535.648438 57.214844 2535.648438 36.859375 C 2535.648438 16.503906 2552.148438 0.00390625 2572.511719 0.00390625 "/>
</g>
<path style=" stroke:none;fill-rule:nonzero;fill:rgb(0%,56.098938%,80.39856%);fill-opacity:1;" d="M 431.699219 215.824219 L 344.8125 265.953125 L 344.964844 266.257813 L 432.765625 367.105469 L 519.496094 316.671875 L 431.855469 215.824219 L 431.699219 215.824219 "/>
<path style=" stroke:none;fill-rule:nonzero;fill:rgb(81.999207%,87.5%,91.398621%);fill-opacity:1;" d="M 432.765625 367.105469 L 346.332031 417.378906 L 258.988281 315.449219 L 344.8125 265.953125 L 344.964844 266.257813 L 432.765625 367.105469 "/>
<path style=" stroke:none;fill-rule:nonzero;fill:rgb(81.999207%,87.5%,91.398621%);fill-opacity:1;" d="M 431.855469 215.824219 L 431.699219 215.824219 L 344.8125 265.953125 L 258.6875 166.011719 L 344.210938 115.136719 L 344.359375 115.136719 L 431.855469 215.824219 "/>
<g clip-path="url(#clip3)" clip-rule="nonzero">
<path style=" stroke:none;fill-rule:nonzero;fill:rgb(0%,56.098938%,80.39856%);fill-opacity:1;" d="M 259.296875 467.941406 L 346.332031 417.378906 L 258.988281 315.449219 L 259.296875 467.941406 "/>
</g>
<path style=" stroke:none;fill-rule:nonzero;fill:rgb(0%,42.698669%,64.698792%);fill-opacity:1;" d="M 258.6875 166.011719 L 344.8125 265.953125 L 258.988281 315.449219 L 258.535156 166.011719 L 258.6875 166.011719 "/>
<path style=" stroke:none;fill-rule:nonzero;fill:rgb(0%,56.098938%,80.39856%);fill-opacity:1;" d="M 258.535156 166.011719 L 258.6875 166.011719 L 344.210938 115.136719 L 344.359375 115.136719 L 258.234375 16.113281 L 258.535156 166.011719 "/>
<g clip-path="url(#clip4)" clip-rule="nonzero">
<path style=" stroke:none;fill-rule:nonzero;fill:rgb(0%,50.999451%,74.499512%);fill-opacity:1;" d="M 84.769531 366.039063 L 259.296875 467.941406 L 258.988281 315.449219 L 171.804688 265.796875 L 85.828125 216.890625 L 84.769531 366.039063 "/>
</g>
<path style=" stroke:none;fill-rule:nonzero;fill:rgb(12.89978%,35.299683%,50.999451%);fill-opacity:1;" d="M 258.535156 166.011719 L 258.988281 315.449219 L 171.804688 265.796875 L 171.5 117.265625 L 258.535156 166.011719 "/>
<path style=" stroke:none;fill-rule:nonzero;fill:rgb(0%,50.999451%,74.499512%);fill-opacity:1;" d="M 258.234375 16.113281 L 171.5 117.121094 L 171.5 117.265625 L 258.535156 166.011719 L 258.234375 16.113281 "/>
<path style=" stroke:none;fill-rule:nonzero;fill:rgb(68.199158%,79.199219%,86.299133%);fill-opacity:1;" d="M 171.804688 265.796875 L 85.828125 216.890625 L 171.5 117.121094 L 171.5 117.265625 L 171.804688 265.796875 "/>
<path style=" stroke:none;fill-rule:nonzero;fill:rgb(12.89978%,35.299683%,50.999451%);fill-opacity:1;" d="M 0 316.671875 L 84.769531 366.039063 L 85.828125 216.890625 L 0 316.671875 "/>
</g>
</svg>
